<svg width="391" height="129" viewBox="0 0 391 129" fill="none" xmlns="http://www.w3.org/2000/svg">
<mask id="path-1-outside-1_3_8" maskUnits="userSpaceOnUse" x="0.971497" y="0.888" width="390" height="128" fill="black">
<rect fill="white" x="0.971497" y="0.888" width="390" height="128"/>
<path d="M45.7475 94.816C37.1288 94.816 29.4915 92.6827 22.8355 88.416C16.1795 84.064 11.0168 78.3467 7.3475 71.264C3.7635 64.1813 1.9715 56.6293 1.9715 48.608C1.9715 40.2453 3.8915 32.48 7.7315 25.312C11.5715 18.144 16.8622 12.4693 23.6035 8.288C30.3448 4.02133 37.8542 1.888 46.1315 1.888C51.4222 1.888 56.2862 2.784 60.7235 4.576C65.2462 6.368 68.8302 8.88534 71.4755 12.128C74.1208 15.2853 75.4435 18.912 75.4435 23.008C75.3582 26.9333 74.0782 30.1333 71.6035 32.608C69.1288 34.9973 66.2275 36.192 62.8995 36.192C60.8515 36.192 58.8462 35.6373 56.8835 34.528C55.0062 33.4187 53.3848 31.7973 52.0195 29.664L60.3395 24.8C61.1928 25.9947 62.0888 26.592 63.0275 26.592C63.7955 26.592 64.4355 26.2507 64.9475 25.568C65.5448 24.8 65.8435 23.8613 65.8435 22.752C65.8435 20.3627 64.7768 18.3147 62.6435 16.608C60.5102 14.816 57.8648 13.4933 54.7075 12.64C51.5502 11.7867 48.4355 11.36 45.3635 11.36C39.8168 11.36 34.4835 12.9813 29.3635 16.224C24.3288 19.4667 20.2328 23.9467 17.0755 29.664C14.0035 35.3813 12.4675 41.696 12.4675 48.608C12.4675 55.3493 13.9608 61.536 16.9475 67.168C19.9342 72.8 24.0302 77.2373 29.2355 80.48C34.4408 83.7227 40.2008 85.344 46.5155 85.344C52.5742 85.344 58.2062 83.8933 63.4115 80.992C68.7022 78.0053 72.4568 74.08 74.6755 69.216L83.3795 73.312C80.4782 79.5413 75.6995 84.704 69.0435 88.8C62.4728 92.8107 54.7075 94.816 45.7475 94.816Z"/>
<path d="M123.055 25.824C125.529 25.824 128.473 26.2507 131.887 27.104L131.63 37.216C128.217 36.2773 125.444 35.808 123.311 35.808C119.3 35.808 116.185 36.7467 113.967 38.624C111.407 40.672 109.188 43.4027 107.311 46.816V92.128H96.8145V46.816C96.8145 40.16 95.0225 35.296 91.4385 32.224L98.4785 25.696C99.7585 26.464 101.038 27.616 102.318 29.152C103.684 30.688 104.793 32.4373 105.646 34.4C107.524 32.0107 109.444 30.176 111.406 28.896C114.649 26.848 118.532 25.824 123.055 25.824Z"/>
<path d="M175.276 127.328C171.606 127.328 168.236 126.389 165.164 124.512C162.092 122.72 159.659 120.203 157.867 116.96C156.161 113.803 155.307 110.261 155.307 106.336C155.307 103.349 155.905 100.576 157.1 98.016C158.38 95.456 160.086 93.4507 162.22 92C156.502 91.232 152.022 89.184 148.779 85.856C145.622 82.528 144.044 78.3467 144.044 73.312V46.944C144.044 40.288 142.251 35.424 138.667 32.352L145.708 25.824C147.841 27.0187 149.804 29.152 151.596 32.224C153.473 35.296 154.454 38.5813 154.54 42.08V70.112C154.54 74.5493 155.521 77.8347 157.484 79.968C159.446 82.1013 162.476 83.168 166.572 83.168C169.9 83.168 172.801 82.528 175.276 81.248C177.75 79.968 180.31 77.792 182.956 74.72C184.406 73.0133 185.132 71.1787 185.132 69.216L185.259 28H195.755L195.628 73.44V104.8C195.628 111.456 193.707 116.875 189.867 121.056C186.113 125.237 181.249 127.328 175.276 127.328ZM175.147 117.216C178.305 117.216 180.78 116.107 182.572 113.888C184.449 111.755 185.388 108.896 185.388 105.312V84.704C183.766 86.8373 181.676 88.7573 179.116 90.464C176.982 91.9147 175.19 93.024 173.74 93.792C170.668 95.4133 168.491 97.12 167.211 98.912C166.017 100.789 165.419 103.179 165.419 106.08C165.419 109.493 166.273 112.181 167.979 114.144C169.771 116.192 172.161 117.216 175.147 117.216Z"/>
<path d="M243.194 26.208C249.168 26.208 254.245 27.7013 258.427 30.688C262.693 33.6747 265.893 37.6853 268.026 42.72C270.245 47.6693 271.354 53.1307 271.354 59.104C271.354 65.6747 270.074 71.5627 267.514 76.768C265.04 81.888 261.37 85.9413 256.507 88.928C251.728 91.8293 246.096 93.28 239.611 93.28C237.051 93.28 232.699 92.896 226.555 92.128V125.28H216.443V47.2C216.443 40.544 214.65 35.68 211.066 32.608L218.107 26.08C219.387 26.848 220.667 28 221.947 29.536C223.227 30.9867 224.293 32.6933 225.147 34.656C227.195 32.096 229.883 30.048 233.211 28.512C236.539 26.976 239.866 26.208 243.194 26.208ZM238.97 83.808C246.138 83.808 251.557 81.632 255.227 77.28C258.981 72.928 260.858 67.1253 260.858 59.872C260.858 53.0453 259.28 47.328 256.122 42.72C252.965 38.0267 248.741 35.68 243.451 35.68C239.269 35.68 235.472 37.0453 232.059 39.776C228.731 42.4213 226.896 45.8347 226.555 50.016V83.04C231.675 83.552 235.813 83.808 238.97 83.808Z"/>
<path d="M303.19 93.28C297.216 93.28 292.693 91.488 289.621 87.904C286.635 84.2347 285.142 79.1573 285.142 72.672V11.488H295.638V28H315.221V37.472H295.638V72.672C295.638 75.744 296.277 78.3467 297.557 80.48C298.837 82.528 300.715 83.552 303.19 83.552C305.664 83.552 307.755 82.8693 309.461 81.504C311.168 80.0533 312.491 78.1333 313.43 75.744L321.621 80.992C317.525 89.184 311.382 93.28 303.19 93.28Z"/>
<path d="M358.046 93.28C351.987 93.28 346.525 91.8293 341.661 88.928C336.883 86.0267 333.128 82.0587 330.397 77.024C327.667 71.904 326.302 66.144 326.302 59.744C326.302 53.344 327.667 47.584 330.397 42.464C333.213 37.2587 337.011 33.2053 341.789 30.304C346.653 27.3173 352.115 25.824 358.173 25.824C364.232 25.824 369.651 27.2747 374.43 30.176C379.294 33.0773 383.091 37.1307 385.822 42.336C388.552 47.456 389.918 53.216 389.918 59.616C389.918 66.016 388.552 71.776 385.822 76.896C383.091 82.016 379.294 86.0267 374.43 88.928C369.566 91.8293 364.104 93.28 358.046 93.28ZM358.173 83.808C364.573 83.808 369.694 81.5893 373.534 77.152C377.459 72.7147 379.422 66.8693 379.422 59.616C379.422 52.2773 377.459 46.3893 373.534 41.952C369.694 37.5147 364.573 35.296 358.173 35.296C353.992 35.296 350.28 36.32 347.038 38.368C343.795 40.416 341.278 43.2747 339.486 46.944C337.694 50.6133 336.797 54.8373 336.797 59.616C336.797 66.8693 338.76 72.7147 342.685 77.152C346.611 81.5893 351.773 83.808 358.173 83.808Z"/>
</mask>
<path d="M45.7475 94.816C37.1288 94.816 29.4915 92.6827 22.8355 88.416C16.1795 84.064 11.0168 78.3467 7.3475 71.264C3.7635 64.1813 1.9715 56.6293 1.9715 48.608C1.9715 40.2453 3.8915 32.48 7.7315 25.312C11.5715 18.144 16.8622 12.4693 23.6035 8.288C30.3448 4.02133 37.8542 1.888 46.1315 1.888C51.4222 1.888 56.2862 2.784 60.7235 4.576C65.2462 6.368 68.8302 8.88534 71.4755 12.128C74.1208 15.2853 75.4435 18.912 75.4435 23.008C75.3582 26.9333 74.0782 30.1333 71.6035 32.608C69.1288 34.9973 66.2275 36.192 62.8995 36.192C60.8515 36.192 58.8462 35.6373 56.8835 34.528C55.0062 33.4187 53.3848 31.7973 52.0195 29.664L60.3395 24.8C61.1928 25.9947 62.0888 26.592 63.0275 26.592C63.7955 26.592 64.4355 26.2507 64.9475 25.568C65.5448 24.8 65.8435 23.8613 65.8435 22.752C65.8435 20.3627 64.7768 18.3147 62.6435 16.608C60.5102 14.816 57.8648 13.4933 54.7075 12.64C51.5502 11.7867 48.4355 11.36 45.3635 11.36C39.8168 11.36 34.4835 12.9813 29.3635 16.224C24.3288 19.4667 20.2328 23.9467 17.0755 29.664C14.0035 35.3813 12.4675 41.696 12.4675 48.608C12.4675 55.3493 13.9608 61.536 16.9475 67.168C19.9342 72.8 24.0302 77.2373 29.2355 80.48C34.4408 83.7227 40.2008 85.344 46.5155 85.344C52.5742 85.344 58.2062 83.8933 63.4115 80.992C68.7022 78.0053 72.4568 74.08 74.6755 69.216L83.3795 73.312C80.4782 79.5413 75.6995 84.704 69.0435 88.8C62.4728 92.8107 54.7075 94.816 45.7475 94.816Z" stroke="black" stroke-width="2" mask="url(#path-1-outside-1_3_8)"/>
<path d="M123.055 25.824C125.529 25.824 128.473 26.2507 131.887 27.104L131.63 37.216C128.217 36.2773 125.444 35.808 123.311 35.808C119.3 35.808 116.185 36.7467 113.967 38.624C111.407 40.672 109.188 43.4027 107.311 46.816V92.128H96.8145V46.816C96.8145 40.16 95.0225 35.296 91.4385 32.224L98.4785 25.696C99.7585 26.464 101.038 27.616 102.318 29.152C103.684 30.688 104.793 32.4373 105.646 34.4C107.524 32.0107 109.444 30.176 111.406 28.896C114.649 26.848 118.532 25.824 123.055 25.824Z" stroke="black" stroke-width="2" mask="url(#path-1-outside-1_3_8)"/>
<path d="M175.276 127.328C171.606 127.328 168.236 126.389 165.164 124.512C162.092 122.72 159.659 120.203 157.867 116.96C156.161 113.803 155.307 110.261 155.307 106.336C155.307 103.349 155.905 100.576 157.1 98.016C158.38 95.456 160.086 93.4507 162.22 92C156.502 91.232 152.022 89.184 148.779 85.856C145.622 82.528 144.044 78.3467 144.044 73.312V46.944C144.044 40.288 142.251 35.424 138.667 32.352L145.708 25.824C147.841 27.0187 149.804 29.152 151.596 32.224C153.473 35.296 154.454 38.5813 154.54 42.08V70.112C154.54 74.5493 155.521 77.8347 157.484 79.968C159.446 82.1013 162.476 83.168 166.572 83.168C169.9 83.168 172.801 82.528 175.276 81.248C177.75 79.968 180.31 77.792 182.956 74.72C184.406 73.0133 185.132 71.1787 185.132 69.216L185.259 28H195.755L195.628 73.44V104.8C195.628 111.456 193.707 116.875 189.867 121.056C186.113 125.237 181.249 127.328 175.276 127.328ZM175.147 117.216C178.305 117.216 180.78 116.107 182.572 113.888C184.449 111.755 185.388 108.896 185.388 105.312V84.704C183.766 86.8373 181.676 88.7573 179.116 90.464C176.982 91.9147 175.19 93.024 173.74 93.792C170.668 95.4133 168.491 97.12 167.211 98.912C166.017 100.789 165.419 103.179 165.419 106.08C165.419 109.493 166.273 112.181 167.979 114.144C169.771 116.192 172.161 117.216 175.147 117.216Z" stroke="black" stroke-width="2" mask="url(#path-1-outside-1_3_8)"/>
<path d="M243.194 26.208C249.168 26.208 254.245 27.7013 258.427 30.688C262.693 33.6747 265.893 37.6853 268.026 42.72C270.245 47.6693 271.354 53.1307 271.354 59.104C271.354 65.6747 270.074 71.5627 267.514 76.768C265.04 81.888 261.37 85.9413 256.507 88.928C251.728 91.8293 246.096 93.28 239.611 93.28C237.051 93.28 232.699 92.896 226.555 92.128V125.28H216.443V47.2C216.443 40.544 214.65 35.68 211.066 32.608L218.107 26.08C219.387 26.848 220.667 28 221.947 29.536C223.227 30.9867 224.293 32.6933 225.147 34.656C227.195 32.096 229.883 30.048 233.211 28.512C236.539 26.976 239.866 26.208 243.194 26.208ZM238.97 83.808C246.138 83.808 251.557 81.632 255.227 77.28C258.981 72.928 260.858 67.1253 260.858 59.872C260.858 53.0453 259.28 47.328 256.122 42.72C252.965 38.0267 248.741 35.68 243.451 35.68C239.269 35.68 235.472 37.0453 232.059 39.776C228.731 42.4213 226.896 45.8347 226.555 50.016V83.04C231.675 83.552 235.813 83.808 238.97 83.808Z" stroke="black" stroke-width="2" mask="url(#path-1-outside-1_3_8)"/>
<path d="M303.19 93.28C297.216 93.28 292.693 91.488 289.621 87.904C286.635 84.2347 285.142 79.1573 285.142 72.672V11.488H295.638V28H315.221V37.472H295.638V72.672C295.638 75.744 296.277 78.3467 297.557 80.48C298.837 82.528 300.715 83.552 303.19 83.552C305.664 83.552 307.755 82.8693 309.461 81.504C311.168 80.0533 312.491 78.1333 313.43 75.744L321.621 80.992C317.525 89.184 311.382 93.28 303.19 93.28Z" stroke="black" stroke-width="2" mask="url(#path-1-outside-1_3_8)"/>
<path d="M358.046 93.28C351.987 93.28 346.525 91.8293 341.661 88.928C336.883 86.0267 333.128 82.0587 330.397 77.024C327.667 71.904 326.302 66.144 326.302 59.744C326.302 53.344 327.667 47.584 330.397 42.464C333.213 37.2587 337.011 33.2053 341.789 30.304C346.653 27.3173 352.115 25.824 358.173 25.824C364.232 25.824 369.651 27.2747 374.43 30.176C379.294 33.0773 383.091 37.1307 385.822 42.336C388.552 47.456 389.918 53.216 389.918 59.616C389.918 66.016 388.552 71.776 385.822 76.896C383.091 82.016 379.294 86.0267 374.43 88.928C369.566 91.8293 364.104 93.28 358.046 93.28ZM358.173 83.808C364.573 83.808 369.694 81.5893 373.534 77.152C377.459 72.7147 379.422 66.8693 379.422 59.616C379.422 52.2773 377.459 46.3893 373.534 41.952C369.694 37.5147 364.573 35.296 358.173 35.296C353.992 35.296 350.28 36.32 347.038 38.368C343.795 40.416 341.278 43.2747 339.486 46.944C337.694 50.6133 336.797 54.8373 336.797 59.616C336.797 66.8693 338.76 72.7147 342.685 77.152C346.611 81.5893 351.773 83.808 358.173 83.808Z" stroke="black" stroke-width="2" mask="url(#path-1-outside-1_3_8)"/>
</svg>
