<svg width="558" height="131" viewBox="0 0 558 131" fill="none" xmlns="http://www.w3.org/2000/svg">
<mask id="path-1-outside-1_3_7" maskUnits="userSpaceOnUse" x="0" y="0" width="558" height="131" fill="none" stroke-width="4">
<rect fill="white" width="558" height="131" />
<path d="M81.64 48.872V59.752C81.64 66.664 79.8907 72.8933 76.392 78.44C72.8933 83.9867 68.2427 88.3387 62.44 91.496C56.7227 94.568 50.6213 96.104 44.136 96.104C36.0293 96.104 28.6907 94.1413 22.12 90.216C15.5493 86.2053 10.3867 80.744 6.632 73.832C2.87733 66.8347 1 59.0693 1 50.536C1 42.2587 2.96267 34.664 6.888 27.752C10.8133 20.84 16.1467 15.3787 22.888 11.368C29.6293 7.35733 37.0533 5.352 45.16 5.352C49.256 5.352 53.6507 6.03467 58.344 7.4C63.0373 8.68 67.048 10.7707 70.376 13.672C73.7893 16.5733 75.496 20.1573 75.496 24.424C75.496 28.1787 74.2587 31.3787 71.784 34.024C69.3093 36.584 66.3227 37.864 62.824 37.864C61.2027 37.864 59.5387 37.5653 57.832 36.968C56.2107 36.2853 54.8453 35.3467 53.736 34.152L59.624 26.856C60.7333 27.7947 61.7573 28.264 62.696 28.264C63.6347 28.264 64.36 27.9653 64.872 27.368C65.384 26.6853 65.64 25.832 65.64 24.808C65.64 21.6507 63.3787 19.2613 58.856 17.64C54.4187 15.9333 49.896 15.08 45.288 15.08C38.888 15.08 33.0853 16.6587 27.88 19.816C22.76 22.9733 18.7493 27.2827 15.848 32.744C12.9467 38.12 11.496 44.0933 11.496 50.664C11.496 57.576 12.904 63.7627 15.72 69.224C18.6213 74.6853 22.5467 78.9093 27.496 81.896C32.4453 84.8827 37.992 86.376 44.136 86.376C49 86.376 53.48 85.224 57.576 82.92C61.672 80.616 64.9147 77.4587 67.304 73.448C69.7787 69.4373 71.0587 64.9573 71.144 60.008V58.6H40.808V48.872H81.64Z"/>
<path d="M152.118 28.264C154.593 28.264 157.537 28.6907 160.95 29.544L160.694 39.656C157.281 38.7173 154.507 38.248 152.374 38.248C148.363 38.248 145.249 39.1867 143.03 41.064C140.47 43.112 138.251 45.8427 136.374 49.256V94.568H125.878V49.256C125.878 42.6 124.086 37.736 120.502 34.664L127.542 28.136C128.822 28.904 130.102 30.056 131.382 31.592C132.747 33.128 133.857 34.8773 134.71 36.84C136.587 34.4507 138.507 32.616 140.47 31.336C143.713 29.288 147.595 28.264 152.118 28.264Z"/>
<path d="M221.551 95.72C215.834 95.72 210.884 94.2267 206.703 91.24C202.607 88.168 199.45 84.072 197.231 78.952C195.098 73.832 194.031 68.2853 194.031 62.312C194.031 55.8267 195.268 50.024 197.743 44.904C200.218 39.784 203.844 35.7307 208.623 32.744C213.487 29.7573 219.29 28.264 226.031 28.264C227.994 28.264 230.426 28.392 233.327 28.648C236.314 28.8187 238.831 29.0747 240.879 29.416H249.455V82.536C249.455 83.7307 249.711 84.6693 250.223 85.352C250.82 85.9493 251.674 86.248 252.783 86.248C254.234 86.248 255.386 85.5227 256.239 84.072L263.407 88.808C262.298 90.9413 260.676 92.648 258.543 93.928C256.495 95.1227 254.276 95.72 251.887 95.72C248.73 95.72 245.999 94.824 243.695 93.032C241.476 91.1547 240.282 88.9787 240.111 86.504V86.632C238.66 89.448 236.228 91.6667 232.815 93.288C229.402 94.9093 225.647 95.72 221.551 95.72ZM222.319 86.248C225.732 86.248 228.762 85.352 231.407 83.56C234.052 81.768 236.058 79.5067 237.423 76.776C238.191 75.3253 238.618 74.088 238.703 73.064C238.874 72.04 238.959 70.888 238.959 69.608V38.632L233.583 38.248C229.316 37.9067 226.458 37.736 225.007 37.736C218.522 37.736 213.487 40.04 209.903 44.648C206.319 49.256 204.527 55.1013 204.527 62.184C204.527 68.7547 206.106 74.4293 209.263 79.208C212.42 83.9013 216.772 86.248 222.319 86.248Z"/>
<path d="M329.328 28.648C335.301 28.648 340.379 30.1413 344.56 33.128C348.827 36.1147 352.027 40.1253 354.16 45.16C356.379 50.1093 357.488 55.5707 357.488 61.544C357.488 68.1147 356.208 74.0027 353.648 79.208C351.173 84.328 347.504 88.3813 342.64 91.368C337.861 94.2693 332.229 95.72 325.744 95.72C323.184 95.72 318.832 95.336 312.688 94.568V127.72H302.576V49.64C302.576 42.984 300.784 38.12 297.2 35.048L304.24 28.52C305.52 29.288 306.8 30.44 308.08 31.976C309.36 33.4267 310.427 35.1333 311.28 37.096C313.328 34.536 316.016 32.488 319.344 30.952C322.672 29.416 326 28.648 329.328 28.648ZM325.104 86.248C332.272 86.248 337.691 84.072 341.36 79.72C345.115 75.368 346.992 69.5653 346.992 62.312C346.992 55.4853 345.413 49.768 342.256 45.16C339.099 40.4667 334.875 38.12 329.584 38.12C325.403 38.12 321.605 39.4853 318.192 42.216C314.864 44.8613 313.029 48.2747 312.688 52.456V85.48C317.808 85.992 321.947 86.248 325.104 86.248Z"/>
<path d="M452.299 83.048C452.299 83.9867 452.598 84.7973 453.195 85.48C453.792 86.0773 454.56 86.376 455.499 86.376C456.864 86.376 457.931 85.608 458.699 84.072L466.251 88.808C465.056 91.0267 463.478 92.776 461.515 94.056C459.638 95.2507 457.419 95.848 454.859 95.848C450.848 95.848 447.648 94.696 445.259 92.392C442.955 90.0027 441.803 86.76 441.803 82.664V49.896C441.803 41.7893 437.664 37.736 429.387 37.736C425.632 37.736 422.39 38.6747 419.659 40.552C416.928 42.344 414.07 45.2027 411.083 49.128V94.184H400.587V1H411.083V36.328C416.63 30.7813 423.03 28.008 430.283 28.008C437.366 28.008 442.784 29.8853 446.539 33.64C450.379 37.3947 452.299 42.6853 452.299 49.512V83.048Z"/>
<path d="M535.604 129.768C531.935 129.768 528.564 128.829 525.492 126.952C522.42 125.16 519.988 122.643 518.196 119.4C516.489 116.243 515.636 112.701 515.636 108.776C515.636 105.789 516.233 103.016 517.428 100.456C518.708 97.896 520.415 95.8907 522.548 94.44C516.831 93.672 512.351 91.624 509.108 88.296C505.951 84.968 504.372 80.7867 504.372 75.752V49.384C504.372 42.728 502.58 37.864 498.996 34.792L506.036 28.264C508.169 29.4587 510.132 31.592 511.924 34.664C513.801 37.736 514.783 41.0213 514.868 44.52V72.552C514.868 76.9893 515.849 80.2747 517.812 82.408C519.775 84.5413 522.804 85.608 526.9 85.608C530.228 85.608 533.129 84.968 535.604 83.688C538.079 82.408 540.639 80.232 543.284 77.16C544.735 75.4533 545.46 73.6187 545.46 71.656L545.588 30.44H556.084L555.956 75.88V107.24C555.956 113.896 554.036 119.315 550.196 123.496C546.441 127.677 541.577 129.768 535.604 129.768ZM535.476 119.656C538.633 119.656 541.108 118.547 542.9 116.328C544.777 114.195 545.716 111.336 545.716 107.752V87.144C544.095 89.2773 542.004 91.1973 539.444 92.904C537.311 94.3547 535.519 95.464 534.068 96.232C530.996 97.8533 528.82 99.56 527.54 101.352C526.345 103.229 525.748 105.619 525.748 108.52C525.748 111.933 526.601 114.621 528.308 116.584C530.1 118.632 532.489 119.656 535.476 119.656Z"/>
</mask>
<path d="M81.64 48.872V59.752C81.64 66.664 79.8907 72.8933 76.392 78.44C72.8933 83.9867 68.2427 88.3387 62.44 91.496C56.7227 94.568 50.6213 96.104 44.136 96.104C36.0293 96.104 28.6907 94.1413 22.12 90.216C15.5493 86.2053 10.3867 80.744 6.632 73.832C2.87733 66.8347 1 59.0693 1 50.536C1 42.2587 2.96267 34.664 6.888 27.752C10.8133 20.84 16.1467 15.3787 22.888 11.368C29.6293 7.35733 37.0533 5.352 45.16 5.352C49.256 5.352 53.6507 6.03467 58.344 7.4C63.0373 8.68 67.048 10.7707 70.376 13.672C73.7893 16.5733 75.496 20.1573 75.496 24.424C75.496 28.1787 74.2587 31.3787 71.784 34.024C69.3093 36.584 66.3227 37.864 62.824 37.864C61.2027 37.864 59.5387 37.5653 57.832 36.968C56.2107 36.2853 54.8453 35.3467 53.736 34.152L59.624 26.856C60.7333 27.7947 61.7573 28.264 62.696 28.264C63.6347 28.264 64.36 27.9653 64.872 27.368C65.384 26.6853 65.64 25.832 65.64 24.808C65.64 21.6507 63.3787 19.2613 58.856 17.64C54.4187 15.9333 49.896 15.08 45.288 15.08C38.888 15.08 33.0853 16.6587 27.88 19.816C22.76 22.9733 18.7493 27.2827 15.848 32.744C12.9467 38.12 11.496 44.0933 11.496 50.664C11.496 57.576 12.904 63.7627 15.72 69.224C18.6213 74.6853 22.5467 78.9093 27.496 81.896C32.4453 84.8827 37.992 86.376 44.136 86.376C49 86.376 53.48 85.224 57.576 82.92C61.672 80.616 64.9147 77.4587 67.304 73.448C69.7787 69.4373 71.0587 64.9573 71.144 60.008V58.6H40.808V48.872H81.64Z" stroke="black" stroke-width="2" mask="url(#path-1-outside-1_3_7)"/>
<path d="M152.118 28.264C154.593 28.264 157.537 28.6907 160.95 29.544L160.694 39.656C157.281 38.7173 154.507 38.248 152.374 38.248C148.363 38.248 145.249 39.1867 143.03 41.064C140.47 43.112 138.251 45.8427 136.374 49.256V94.568H125.878V49.256C125.878 42.6 124.086 37.736 120.502 34.664L127.542 28.136C128.822 28.904 130.102 30.056 131.382 31.592C132.747 33.128 133.857 34.8773 134.71 36.84C136.587 34.4507 138.507 32.616 140.47 31.336C143.713 29.288 147.595 28.264 152.118 28.264Z" stroke="black" stroke-width="2" mask="url(#path-1-outside-1_3_7)"/>
<path d="M221.551 95.72C215.834 95.72 210.884 94.2267 206.703 91.24C202.607 88.168 199.45 84.072 197.231 78.952C195.098 73.832 194.031 68.2853 194.031 62.312C194.031 55.8267 195.268 50.024 197.743 44.904C200.218 39.784 203.844 35.7307 208.623 32.744C213.487 29.7573 219.29 28.264 226.031 28.264C227.994 28.264 230.426 28.392 233.327 28.648C236.314 28.8187 238.831 29.0747 240.879 29.416H249.455V82.536C249.455 83.7307 249.711 84.6693 250.223 85.352C250.82 85.9493 251.674 86.248 252.783 86.248C254.234 86.248 255.386 85.5227 256.239 84.072L263.407 88.808C262.298 90.9413 260.676 92.648 258.543 93.928C256.495 95.1227 254.276 95.72 251.887 95.72C248.73 95.72 245.999 94.824 243.695 93.032C241.476 91.1547 240.282 88.9787 240.111 86.504V86.632C238.66 89.448 236.228 91.6667 232.815 93.288C229.402 94.9093 225.647 95.72 221.551 95.72ZM222.319 86.248C225.732 86.248 228.762 85.352 231.407 83.56C234.052 81.768 236.058 79.5067 237.423 76.776C238.191 75.3253 238.618 74.088 238.703 73.064C238.874 72.04 238.959 70.888 238.959 69.608V38.632L233.583 38.248C229.316 37.9067 226.458 37.736 225.007 37.736C218.522 37.736 213.487 40.04 209.903 44.648C206.319 49.256 204.527 55.1013 204.527 62.184C204.527 68.7547 206.106 74.4293 209.263 79.208C212.42 83.9013 216.772 86.248 222.319 86.248Z" stroke="black" stroke-width="2" mask="url(#path-1-outside-1_3_7)"/>
<path d="M329.328 28.648C335.301 28.648 340.379 30.1413 344.56 33.128C348.827 36.1147 352.027 40.1253 354.16 45.16C356.379 50.1093 357.488 55.5707 357.488 61.544C357.488 68.1147 356.208 74.0027 353.648 79.208C351.173 84.328 347.504 88.3813 342.64 91.368C337.861 94.2693 332.229 95.72 325.744 95.72C323.184 95.72 318.832 95.336 312.688 94.568V127.72H302.576V49.64C302.576 42.984 300.784 38.12 297.2 35.048L304.24 28.52C305.52 29.288 306.8 30.44 308.08 31.976C309.36 33.4267 310.427 35.1333 311.28 37.096C313.328 34.536 316.016 32.488 319.344 30.952C322.672 29.416 326 28.648 329.328 28.648ZM325.104 86.248C332.272 86.248 337.691 84.072 341.36 79.72C345.115 75.368 346.992 69.5653 346.992 62.312C346.992 55.4853 345.413 49.768 342.256 45.16C339.099 40.4667 334.875 38.12 329.584 38.12C325.403 38.12 321.605 39.4853 318.192 42.216C314.864 44.8613 313.029 48.2747 312.688 52.456V85.48C317.808 85.992 321.947 86.248 325.104 86.248Z" stroke="black" stroke-width="2" mask="url(#path-1-outside-1_3_7)"/>
<path d="M452.299 83.048C452.299 83.9867 452.598 84.7973 453.195 85.48C453.792 86.0773 454.56 86.376 455.499 86.376C456.864 86.376 457.931 85.608 458.699 84.072L466.251 88.808C465.056 91.0267 463.478 92.776 461.515 94.056C459.638 95.2507 457.419 95.848 454.859 95.848C450.848 95.848 447.648 94.696 445.259 92.392C442.955 90.0027 441.803 86.76 441.803 82.664V49.896C441.803 41.7893 437.664 37.736 429.387 37.736C425.632 37.736 422.39 38.6747 419.659 40.552C416.928 42.344 414.07 45.2027 411.083 49.128V94.184H400.587V1H411.083V36.328C416.63 30.7813 423.03 28.008 430.283 28.008C437.366 28.008 442.784 29.8853 446.539 33.64C450.379 37.3947 452.299 42.6853 452.299 49.512V83.048Z" stroke="black" stroke-width="2" mask="url(#path-1-outside-1_3_7)"/>
<path d="M535.604 129.768C531.935 129.768 528.564 128.829 525.492 126.952C522.42 125.16 519.988 122.643 518.196 119.4C516.489 116.243 515.636 112.701 515.636 108.776C515.636 105.789 516.233 103.016 517.428 100.456C518.708 97.896 520.415 95.8907 522.548 94.44C516.831 93.672 512.351 91.624 509.108 88.296C505.951 84.968 504.372 80.7867 504.372 75.752V49.384C504.372 42.728 502.58 37.864 498.996 34.792L506.036 28.264C508.169 29.4587 510.132 31.592 511.924 34.664C513.801 37.736 514.783 41.0213 514.868 44.52V72.552C514.868 76.9893 515.849 80.2747 517.812 82.408C519.775 84.5413 522.804 85.608 526.9 85.608C530.228 85.608 533.129 84.968 535.604 83.688C538.079 82.408 540.639 80.232 543.284 77.16C544.735 75.4533 545.46 73.6187 545.46 71.656L545.588 30.44H556.084L555.956 75.88V107.24C555.956 113.896 554.036 119.315 550.196 123.496C546.441 127.677 541.577 129.768 535.604 129.768ZM535.476 119.656C538.633 119.656 541.108 118.547 542.9 116.328C544.777 114.195 545.716 111.336 545.716 107.752V87.144C544.095 89.2773 542.004 91.1973 539.444 92.904C537.311 94.3547 535.519 95.464 534.068 96.232C530.996 97.8533 528.82 99.56 527.54 101.352C526.345 103.229 525.748 105.619 525.748 108.52C525.748 111.933 526.601 114.621 528.308 116.584C530.1 118.632 532.489 119.656 535.476 119.656Z" stroke="black" stroke-width="2" mask="url(#path-1-outside-1_3_7)"/>
</svg>
